<mxfile host="app.diagrams.net" agent="Mozilla/5.0 (Windows NT 10.0; Win64; x64) AppleWebKit/537.36 (KHTML, like Gecko) Chrome/136.0.0.0 Safari/537.36" version="27.0.6">
  <diagram name="Page-1" id="CqqM9JERwxWRDDBRcF0f">
    <mxGraphModel dx="1895" dy="1031" grid="0" gridSize="10" guides="1" tooltips="1" connect="1" arrows="1" fold="1" page="1" pageScale="1" pageWidth="827" pageHeight="1169" background="light-dark(#FFFFFF,#FBFBFB)" math="0" shadow="0">
      <root>
        <mxCell id="0" />
        <mxCell id="1" parent="0" />
        <mxCell id="gH95n6j-FJJgYdoXgDkf-1" value="" style="endArrow=block;endSize=10;endFill=0;shadow=0;strokeWidth=1;rounded=0;curved=0;edgeStyle=elbowEdgeStyle;elbow=vertical;" edge="1" parent="1">
          <mxGeometry width="160" relative="1" as="geometry">
            <mxPoint x="200" y="360" as="sourcePoint" />
            <mxPoint x="300" y="258" as="targetPoint" />
          </mxGeometry>
        </mxCell>
        <mxCell id="gH95n6j-FJJgYdoXgDkf-2" value="" style="endArrow=block;endSize=10;endFill=0;shadow=0;strokeWidth=1;rounded=0;curved=0;edgeStyle=elbowEdgeStyle;elbow=vertical;" edge="1" parent="1">
          <mxGeometry width="160" relative="1" as="geometry">
            <mxPoint x="410" y="360" as="sourcePoint" />
            <mxPoint x="300" y="258" as="targetPoint" />
          </mxGeometry>
        </mxCell>
        <mxCell id="gH95n6j-FJJgYdoXgDkf-3" value="" style="endArrow=open;shadow=0;strokeWidth=1;rounded=0;curved=0;endFill=1;edgeStyle=elbowEdgeStyle;elbow=vertical;" edge="1" parent="1">
          <mxGeometry x="0.5" y="41" relative="1" as="geometry">
            <mxPoint x="380" y="189" as="sourcePoint" />
            <mxPoint x="508" y="189" as="targetPoint" />
            <mxPoint x="-40" y="32" as="offset" />
          </mxGeometry>
        </mxCell>
        <mxCell id="gH95n6j-FJJgYdoXgDkf-4" value="0..1" style="resizable=0;align=left;verticalAlign=bottom;labelBackgroundColor=none;fontSize=12;" connectable="0" vertex="1" parent="gH95n6j-FJJgYdoXgDkf-3">
          <mxGeometry x="-1" relative="1" as="geometry">
            <mxPoint y="4" as="offset" />
          </mxGeometry>
        </mxCell>
        <mxCell id="gH95n6j-FJJgYdoXgDkf-5" value="1" style="resizable=0;align=right;verticalAlign=bottom;labelBackgroundColor=none;fontSize=12;" connectable="0" vertex="1" parent="gH95n6j-FJJgYdoXgDkf-3">
          <mxGeometry x="1" relative="1" as="geometry">
            <mxPoint x="-7" y="4" as="offset" />
          </mxGeometry>
        </mxCell>
        <mxCell id="gH95n6j-FJJgYdoXgDkf-6" value="lives at" style="text;html=1;resizable=0;points=[];;align=center;verticalAlign=middle;labelBackgroundColor=none;rounded=0;shadow=0;strokeWidth=1;fontSize=12;" vertex="1" connectable="0" parent="gH95n6j-FJJgYdoXgDkf-3">
          <mxGeometry x="0.5" y="49" relative="1" as="geometry">
            <mxPoint x="-38" y="40" as="offset" />
          </mxGeometry>
        </mxCell>
        <mxCell id="gH95n6j-FJJgYdoXgDkf-7" value="" style="rounded=1;whiteSpace=wrap;html=1;strokeColor=light-dark(#000000,#060606);fillColor=light-dark(#FFFFFF,#F5F5F5);" vertex="1" parent="1">
          <mxGeometry x="21" y="45" width="791" height="233" as="geometry" />
        </mxCell>
        <mxCell id="gH95n6j-FJJgYdoXgDkf-8" value="&lt;font style=&quot;color: light-dark(rgb(0, 0, 0), rgb(0, 0, 0)); font-size: 21px;&quot;&gt;Logo img&lt;/font&gt;" style="text;html=1;align=center;verticalAlign=middle;whiteSpace=wrap;rounded=0;strokeWidth=11;fillColor=none;" vertex="1" parent="1">
          <mxGeometry x="226" y="62" width="348" height="130" as="geometry" />
        </mxCell>
        <mxCell id="gH95n6j-FJJgYdoXgDkf-9" value="" style="rounded=1;whiteSpace=wrap;html=1;fillColor=none;strokeColor=light-dark(#000000,#000000);" vertex="1" parent="1">
          <mxGeometry x="43.5" y="230" width="746" height="44" as="geometry" />
        </mxCell>
        <mxCell id="gH95n6j-FJJgYdoXgDkf-10" value="" style="ellipse;whiteSpace=wrap;html=1;fillColor=none;strokeColor=light-dark(#000000,#080808);" vertex="1" parent="1">
          <mxGeometry x="182" y="239.25" width="117" height="25.5" as="geometry" />
        </mxCell>
        <mxCell id="gH95n6j-FJJgYdoXgDkf-11" value="" style="ellipse;whiteSpace=wrap;html=1;fillColor=none;strokeColor=light-dark(#000000,#080808);" vertex="1" parent="1">
          <mxGeometry x="426" y="239.25" width="117" height="25.5" as="geometry" />
        </mxCell>
        <mxCell id="gH95n6j-FJJgYdoXgDkf-12" value="" style="ellipse;whiteSpace=wrap;html=1;fillColor=light-dark(#FFFFFF,#FFFF99);strokeColor=light-dark(#000000,#080808);" vertex="1" parent="1">
          <mxGeometry x="306" y="239.25" width="117" height="25.5" as="geometry" />
        </mxCell>
        <mxCell id="gH95n6j-FJJgYdoXgDkf-13" value="" style="ellipse;whiteSpace=wrap;html=1;fillColor=none;strokeColor=light-dark(#000000,#080808);" vertex="1" parent="1">
          <mxGeometry x="690" y="239.25" width="95" height="25.5" as="geometry" />
        </mxCell>
        <mxCell id="gH95n6j-FJJgYdoXgDkf-14" value="&lt;font style=&quot;color: light-dark(rgb(0, 0, 0), rgb(0, 0, 0));&quot;&gt;catalogo&lt;/font&gt;" style="text;html=1;align=center;verticalAlign=middle;whiteSpace=wrap;rounded=0;fillColor=none;" vertex="1" parent="1">
          <mxGeometry x="337" y="234.75" width="60" height="30" as="geometry" />
        </mxCell>
        <mxCell id="gH95n6j-FJJgYdoXgDkf-15" value="&lt;font style=&quot;color: light-dark(rgb(0, 0, 0), rgb(0, 0, 0));&quot;&gt;home&lt;/font&gt;" style="text;html=1;align=center;verticalAlign=middle;whiteSpace=wrap;rounded=0;" vertex="1" parent="1">
          <mxGeometry x="210.5" y="233" width="60" height="30" as="geometry" />
        </mxCell>
        <mxCell id="gH95n6j-FJJgYdoXgDkf-16" value="&lt;font style=&quot;color: light-dark(rgb(0, 0, 0), rgb(0, 0, 0));&quot;&gt;autori&lt;/font&gt;" style="text;html=1;align=center;verticalAlign=middle;whiteSpace=wrap;rounded=0;" vertex="1" parent="1">
          <mxGeometry x="454.5" y="237" width="60" height="30" as="geometry" />
        </mxCell>
        <mxCell id="gH95n6j-FJJgYdoXgDkf-17" value="&lt;font style=&quot;color: light-dark(rgb(0, 0, 0), rgb(0, 0, 0));&quot;&gt;login&lt;/font&gt;" style="text;html=1;align=center;verticalAlign=middle;whiteSpace=wrap;rounded=0;" vertex="1" parent="1">
          <mxGeometry x="707.5" y="234.75" width="60" height="30" as="geometry" />
        </mxCell>
        <mxCell id="gH95n6j-FJJgYdoXgDkf-18" style="edgeStyle=orthogonalEdgeStyle;rounded=0;orthogonalLoop=1;jettySize=auto;html=1;exitX=0.75;exitY=1;exitDx=0;exitDy=0;entryX=1;entryY=0.75;entryDx=0;entryDy=0;" edge="1" parent="1" source="gH95n6j-FJJgYdoXgDkf-19" target="gH95n6j-FJJgYdoXgDkf-20">
          <mxGeometry relative="1" as="geometry" />
        </mxCell>
        <mxCell id="gH95n6j-FJJgYdoXgDkf-19" value="" style="rounded=1;whiteSpace=wrap;html=1;fillColor=none;strokeColor=light-dark(#000000,#000000);" vertex="1" parent="1">
          <mxGeometry x="44" y="290" width="120" height="30" as="geometry" />
        </mxCell>
        <mxCell id="gH95n6j-FJJgYdoXgDkf-20" value="&lt;font style=&quot;color: light-dark(rgb(0, 0, 0), rgb(0, 0, 0));&quot;&gt;button&lt;/font&gt;" style="text;html=1;align=center;verticalAlign=middle;whiteSpace=wrap;rounded=0;" vertex="1" parent="1">
          <mxGeometry x="72" y="290" width="60" height="30" as="geometry" />
        </mxCell>
        <mxCell id="gH95n6j-FJJgYdoXgDkf-21" value="" style="rounded=1;whiteSpace=wrap;html=1;fillColor=none;strokeColor=light-dark(#000000,#000000);" vertex="1" parent="1">
          <mxGeometry x="29" y="331" width="767" height="483" as="geometry" />
        </mxCell>
        <mxCell id="gH95n6j-FJJgYdoXgDkf-22" style="edgeStyle=orthogonalEdgeStyle;rounded=0;orthogonalLoop=1;jettySize=auto;html=1;exitX=0.5;exitY=1;exitDx=0;exitDy=0;" edge="1" parent="1" target="gH95n6j-FJJgYdoXgDkf-21">
          <mxGeometry relative="1" as="geometry">
            <mxPoint x="413" y="502" as="sourcePoint" />
          </mxGeometry>
        </mxCell>
        <mxCell id="gH95n6j-FJJgYdoXgDkf-23" value="" style="rounded=1;whiteSpace=wrap;html=1;fillColor=none;strokeColor=light-dark(#000000,#000000);" vertex="1" parent="1">
          <mxGeometry x="52" y="839" width="710" height="108" as="geometry" />
        </mxCell>
        <mxCell id="gH95n6j-FJJgYdoXgDkf-24" value="&lt;font style=&quot;color: light-dark(rgb(0, 0, 0), rgb(0, 0, 0));&quot;&gt;Footer&lt;/font&gt;" style="text;html=1;align=center;verticalAlign=middle;whiteSpace=wrap;rounded=0;" vertex="1" parent="1">
          <mxGeometry x="370" y="894" width="60" height="30" as="geometry" />
        </mxCell>
        <mxCell id="gH95n6j-FJJgYdoXgDkf-25" value="&lt;font style=&quot;color: light-dark(rgb(0, 0, 0), rgb(0, 0, 0)); font-size: 22px;&quot;&gt;Header&lt;/font&gt;" style="text;html=1;align=center;verticalAlign=middle;whiteSpace=wrap;rounded=0;" vertex="1" parent="1">
          <mxGeometry x="370" y="56" width="60" height="30" as="geometry" />
        </mxCell>
        <mxCell id="gH95n6j-FJJgYdoXgDkf-26" value="" style="ellipse;whiteSpace=wrap;html=1;fillColor=none;strokeColor=light-dark(#000000,#CCCC00);" vertex="1" parent="1">
          <mxGeometry x="340" y="94" width="120" height="64" as="geometry" />
        </mxCell>
        <mxCell id="gH95n6j-FJJgYdoXgDkf-27" value="&lt;font style=&quot;color: light-dark(rgb(0, 0, 0), rgb(0, 0, 0));&quot;&gt;NAVBAR&lt;/font&gt;" style="text;html=1;align=center;verticalAlign=middle;whiteSpace=wrap;rounded=0;" vertex="1" parent="1">
          <mxGeometry x="66" y="237" width="60" height="30" as="geometry" />
        </mxCell>
        <mxCell id="gH95n6j-FJJgYdoXgDkf-28" value="&lt;font style=&quot;color: light-dark(rgb(0, 0, 0), rgb(0, 0, 0));&quot;&gt;body- web page&lt;/font&gt;" style="text;html=1;align=center;verticalAlign=middle;whiteSpace=wrap;rounded=0;" vertex="1" parent="1">
          <mxGeometry x="280" y="11" width="229.5" height="30" as="geometry" />
        </mxCell>
        <mxCell id="gH95n6j-FJJgYdoXgDkf-29" value="" style="rounded=1;whiteSpace=wrap;html=1;fillColor=none;strokeColor=light-dark(#000000,#000000);" vertex="1" parent="1">
          <mxGeometry x="63" y="345" width="198" height="288" as="geometry" />
        </mxCell>
        <mxCell id="gH95n6j-FJJgYdoXgDkf-30" value="" style="rounded=1;whiteSpace=wrap;html=1;fillColor=none;strokeColor=light-dark(#000000,#000000);" vertex="1" parent="1">
          <mxGeometry x="272" y="345" width="198" height="288" as="geometry" />
        </mxCell>
        <mxCell id="gH95n6j-FJJgYdoXgDkf-31" value="" style="rounded=1;whiteSpace=wrap;html=1;fillColor=none;strokeColor=light-dark(#000000,#000000);" vertex="1" parent="1">
          <mxGeometry x="480" y="344" width="198" height="288" as="geometry" />
        </mxCell>
        <mxCell id="gH95n6j-FJJgYdoXgDkf-32" value="" style="shape=flexArrow;endArrow=classic;startArrow=classic;html=1;rounded=0;strokeColor=light-dark(#000000,#000000);" edge="1" parent="1">
          <mxGeometry width="100" height="100" relative="1" as="geometry">
            <mxPoint x="249" y="793.84" as="sourcePoint" />
            <mxPoint x="578" y="794" as="targetPoint" />
            <Array as="points">
              <mxPoint x="317" y="793.84" />
            </Array>
          </mxGeometry>
        </mxCell>
        <mxCell id="gH95n6j-FJJgYdoXgDkf-33" value="&lt;font style=&quot;color: light-dark(rgb(0, 0, 0), rgb(0, 0, 0));&quot;&gt;box1&lt;/font&gt;" style="text;html=1;align=center;verticalAlign=middle;whiteSpace=wrap;rounded=0;" vertex="1" parent="1">
          <mxGeometry x="124" y="459" width="60" height="30" as="geometry" />
        </mxCell>
        <mxCell id="gH95n6j-FJJgYdoXgDkf-34" value="&lt;font style=&quot;color: light-dark(rgb(0, 0, 0), rgb(0, 0, 0));&quot;&gt;box2&lt;/font&gt;" style="text;html=1;align=center;verticalAlign=middle;whiteSpace=wrap;rounded=0;" vertex="1" parent="1">
          <mxGeometry x="335" y="456" width="60" height="30" as="geometry" />
        </mxCell>
        <mxCell id="gH95n6j-FJJgYdoXgDkf-35" value="&lt;font style=&quot;color: light-dark(rgb(0, 0, 0), rgb(0, 0, 0));&quot;&gt;box3&lt;/font&gt;" style="text;html=1;align=center;verticalAlign=middle;whiteSpace=wrap;rounded=0;" vertex="1" parent="1">
          <mxGeometry x="546" y="459" width="60" height="30" as="geometry" />
        </mxCell>
      </root>
    </mxGraphModel>
  </diagram>
</mxfile>
